<svg width="24" height="24" viewBox="0 0 24 24" fill="none" xmlns="http://www.w3.org/2000/svg">
  <path d="M5 6H5.01H5ZM12 6H12.01H12ZM19 6H19.01H19ZM6 6C6 6.26522 5.89464 6.51957 5.70711 6.70711C5.51957 6.89464 5.26522 7 5 7C4.73478 7 4.48043 6.89464 4.29289 6.70711C4.10536 6.51957 4 6.26522 4 6C4 5.73478 4.10536 5.48043 4.29289 5.29289C4.48043 5.10536 4.73478 5 5 5C5.26522 5 5.51957 5.10536 5.70711 5.29289C5.89464 5.48043 6 5.73478 6 6V6ZM13 6C13 6.26522 12.8946 6.51957 12.7071 6.70711C12.5196 6.89464 12.2652 7 12 7C11.7348 7 11.4804 6.89464 11.2929 6.70711C11.1054 6.51957 11 6.26522 11 6C11 5.73478 11.1054 5.48043 11.2929 5.29289C11.4804 5.10536 11.7348 5 12 5C12.2652 5 12.5196 5.10536 12.7071 5.29289C12.8946 5.48043 13 5.73478 13 6V6ZM20 6C20 6.26522 19.8946 6.51957 19.7071 6.70711C19.5196 6.89464 19.2652 7 19 7C18.7348 7 18.4804 6.89464 18.2929 6.70711C18.1054 6.51957 18 6.26522 18 6C18 5.73478 18.1054 5.48043 18.2929 5.29289C18.4804 5.10536 18.7348 5 19 5C19.2652 5 19.5196 5.10536 19.7071 5.29289C19.8946 5.48043 20 5.73478 20 6V6Z" stroke="currentColor" stroke-width="2" stroke-linecap="round" stroke-linejoin="round"/>
  <path d="M5 12H5.01H5ZM12 12H12.01H12ZM19 12H19.01H19ZM6 12C6 12.2652 5.89464 12.5196 5.70711 12.7071C5.51957 12.8946 5.26522 13 5 13C4.73478 13 4.48043 12.8946 4.29289 12.7071C4.10536 12.5196 4 12.2652 4 12C4 11.7348 4.10536 11.4804 4.29289 11.2929C4.48043 11.1054 4.73478 11 5 11C5.26522 11 5.51957 11.1054 5.70711 11.2929C5.89464 11.4804 6 11.7348 6 12V12ZM13 12C13 12.2652 12.8946 12.5196 12.7071 12.7071C12.5196 12.8946 12.2652 13 12 13C11.7348 13 11.4804 12.8946 11.2929 12.7071C11.1054 12.5196 11 12.2652 11 12C11 11.7348 11.1054 11.4804 11.2929 11.2929C11.4804 11.1054 11.7348 11 12 11C12.2652 11 12.5196 11.1054 12.7071 11.2929C12.8946 11.4804 13 11.7348 13 12V12ZM20 12C20 12.2652 19.8946 12.5196 19.7071 12.7071C19.5196 12.8946 19.2652 13 19 13C18.7348 13 18.4804 12.8946 18.2929 12.7071C18.1054 12.5196 18 12.2652 18 12C18 11.7348 18.1054 11.4804 18.2929 11.2929C18.4804 11.1054 18.7348 11 19 11C19.2652 11 19.5196 11.1054 19.7071 11.2929C19.8946 11.4804 20 11.7348 20 12V12Z" stroke="currentColor" stroke-width="2" stroke-linecap="round" stroke-linejoin="round"/>
  <path d="M5 18H5.01H5ZM12 18H12.01H12ZM19 18H19.01H19ZM6 18C6 18.2652 5.89464 18.5196 5.70711 18.7071C5.51957 18.8946 5.26522 19 5 19C4.73478 19 4.48043 18.8946 4.29289 18.7071C4.10536 18.5196 4 18.2652 4 18C4 17.7348 4.10536 17.4804 4.29289 17.2929C4.48043 17.1054 4.73478 17 5 17C5.26522 17 5.51957 17.1054 5.70711 17.2929C5.89464 17.4804 6 17.7348 6 18V18ZM13 18C13 18.2652 12.8946 18.5196 12.7071 18.7071C12.5196 18.8946 12.2652 19 12 19C11.7348 19 11.4804 18.8946 11.2929 18.7071C11.1054 18.5196 11 18.2652 11 18C11 17.7348 11.1054 17.4804 11.2929 17.2929C11.4804 17.1054 11.7348 17 12 17C12.2652 17 12.5196 17.1054 12.7071 17.2929C12.8946 17.4804 13 17.7348 13 18V18ZM20 18C20 18.2652 19.8946 18.5196 19.7071 18.7071C19.5196 18.8946 19.2652 19 19 19C18.7348 19 18.4804 18.8946 18.2929 18.7071C18.1054 18.5196 18 18.2652 18 18C18 17.7348 18.1054 17.4804 18.2929 17.2929C18.4804 17.1054 18.7348 17 19 17C19.2652 17 19.5196 17.1054 19.7071 17.2929C19.8946 17.4804 20 17.7348 20 18V18Z" stroke="currentColor" stroke-width="2" stroke-linecap="round" stroke-linejoin="round"/>
</svg>
