<svg xmlns="http://www.w3.org/2000/svg" viewBox="0 0 317.44 340.91">
  <g id="Layer_2" data-name="Layer 2">
    <g id="Layer_1-2" data-name="Layer 1">
      <path d="M94.53,81.23,5.06,61.93,3.9,61.68A3.23,3.23,0,0,0,.07,64.15a3.28,3.28,0,0,0,.26,2.11l35.53,72.13a3.2,3.2,0,0,0,5.21.79l24.68-26a1.83,1.83,0,0,1,1.37-.6,1.94,1.94,0,0,1,1.73,1l5.05,9.35a3.15,3.15,0,0,0,3.52,1.61h0a3.14,3.14,0,0,0,2.49-3L81,100a1.92,1.92,0,0,1,.2-.78,2.21,2.21,0,0,1,.51-.63L95.89,86.87a3.21,3.21,0,0,0,.45-4.53,3.27,3.27,0,0,0-1.81-1.11Zm.55,4.65L80.84,97.56a3.45,3.45,0,0,0-.5.51L4.9,63.85l-.2-.07a1.29,1.29,0,0,0-1.08,2.3l62,45.56a3.07,3.07,0,0,0-.84.64l-24.67,26a1.93,1.93,0,0,1-2.73.06,1.77,1.77,0,0,1-.4-.54L1.49,65.68a1.94,1.94,0,0,1,2.14-2.74l1.19.26L94.26,82.49a1.94,1.94,0,0,1,1.48,2.3,2,2,0,0,1-.66,1.09Z" fill="#84e1bc"/><path d="M154.39,339c-6.57-1.77-14.58-9.16-12.86-19.32.85-5,4.11-8.29,7.49-10.4A31.49,31.49,0,0,1,164.16,305c5.92-.32,11.84.49,17.72,1.34s11.6,1.6,17.43,2.06a224.58,224.58,0,0,0,68-5.06q8.26-1.9,16.41-4.46a112.38,112.38,0,0,0,15.07-5.64c6.46-3.1,17-9.14,16.12-20.32-.46-5.93-3.95-10.66-7.47-14-4.26-4-9.19-6.62-14-9.16-22.45-11.86-44.94-23.57-67.41-35.36-5.25-2.75-10.53-5.42-15.62-8.65A51.66,51.66,0,0,1,197.1,194.4c-3.35-4.23-6.34-9.91-6.24-16.26a20.48,20.48,0,0,1,5.42-13.08c7.27-8.28,17.56-11.63,26.85-13.39,11.55-2.18,23.26-2.17,34.81-4.28,9.33-1.7,19.3-5,26.89-12.68a24,24,0,0,0,6.55-11.45A22.54,22.54,0,0,0,290,109.67a35.16,35.16,0,0,0-8.78-12,52.76,52.76,0,0,0-13.32-8.9c-10.25-4.88-21-7.43-31.52-11.17a69.2,69.2,0,0,1-15.13-7c-4-2.68-8.46-6.28-10.72-11.64C205.93,47.87,217,41.27,223.3,38.78A82.26,82.26,0,0,1,236.45,35c1-.2.55-2.09-.4-1.89a79.13,79.13,0,0,0-13.81,4c-3.79,1.58-7.7,3.65-10.67,7.21a15,15,0,0,0-3.39,11.72c.79,5.31,4.21,9.4,7.43,12.36a47.58,47.58,0,0,0,14,8.56c5.19,2.2,10.48,3.91,15.77,5.59C256,85.94,267,88.93,276.57,96.07c6.67,5,15.74,14.35,13.52,26a22.31,22.31,0,0,1-7.21,12.14A42.2,42.2,0,0,1,270,142c-21.15,8.51-44.42,2.42-65,14-7,3.93-15.52,11.09-15.58,22.35,0,5.85,2.3,11.21,5.2,15.45a46.7,46.7,0,0,0,12.54,12,144.93,144.93,0,0,0,15,8.67L239,223.31l34.21,17.94,17,8.92c5.19,2.72,10.51,5.33,15.23,9.32,3.86,3.27,8.43,8.64,8,15.3-.31,5.29-3.82,9.11-7,11.66A49.29,49.29,0,0,1,293,293.67c-5.37,2.05-10.82,3.75-16.28,5.28a219,219,0,0,1-34.13,6.68,223.25,223.25,0,0,1-34.68,1.29q-8.77-.35-17.52-1.4c-6-.72-12-1.84-18-2.33A47.49,47.49,0,0,0,156,304.28c-4.49,1.2-9.22,3.34-12.62,7.52A16.6,16.6,0,0,0,139.86,323,20.19,20.19,0,0,0,144,334.17a18.7,18.7,0,0,0,10,6.71c.94.26,1.34-1.63.39-1.89Z" fill="#e6e6e6"/><rect x="154.27" y="340.04" width="100" height="0.69" fill="#3f3d56"/><circle cx="303.82" cy="258.12" r="13.62" fill="#e6e6e6"/><circle cx="284.97" cy="123.13" r="13.62" fill="#e6e6e6"/><path d="M278.34.16,238.07,9.07a6.89,6.89,0,0,0-5.23,8.19L239.21,46a6.87,6.87,0,0,0,8.19,5.22l40.27-8.9a6.88,6.88,0,0,0,5.23-8.2L286.54,5.39A6.9,6.9,0,0,0,278.34.16ZM279.19,4a3,3,0,0,1,.73-.07L262.76,25.17,238.35,13.09a3.81,3.81,0,0,1,.57-.19Zm7.63,34.51-40.27,8.91A3,3,0,0,1,243,45.18l-6.3-28.51,25.68,12.72a2,2,0,0,0,2.4-.53l18-22.23L289.06,35a2.94,2.94,0,0,1-2.24,3.51Z" fill="#e6e6e6"/><circle cx="205.75" cy="125.58" r="34.44" fill="#84e1bc"/><path d="M200.32,340.09h-9.5a4.19,4.19,0,0,1-4.18-4.19V256.75a4.19,4.19,0,0,1,4.18-4.19h9.5a4.19,4.19,0,0,1,4.18,4.19V335.9A4.19,4.19,0,0,1,200.32,340.09Z" fill="#2f2e41"/><path d="M219.11,340.09h-9.5a4.19,4.19,0,0,1-4.18-4.19V256.75a4.19,4.19,0,0,1,4.18-4.19h9.5a4.2,4.2,0,0,1,4.18,4.19V335.9A4.2,4.2,0,0,1,219.11,340.09Z" fill="#2f2e41"/><path d="M258.46,248.47a4.32,4.32,0,0,1-1.23-.19,4.14,4.14,0,0,1-2.47-2l-37.1-69.92a4.17,4.17,0,0,1,1.73-5.65h0l8.39-4.46a4.2,4.2,0,0,1,5.66,1.73h0l37.1,69.92a4.17,4.17,0,0,1-1.73,5.65h0L260.42,248A4.16,4.16,0,0,1,258.46,248.47Z" fill="#84e1bc"/><path d="M181.22,184a4.08,4.08,0,0,1-1.47-.27h0l-74.06-28a4.18,4.18,0,0,1-2.43-5.38h0l3.35-8.88a4.18,4.18,0,0,1,5.39-2.43l74.05,28a4.18,4.18,0,0,1,2.44,5.38l-3.36,8.89A4.2,4.2,0,0,1,181.22,184Z" fill="#84e1bc"/><rect x="179.92" y="166" width="50.88" height="99.41" rx="3.86" fill="#2f2e41"/><path d="M231.19,91.85c2,4.44,4,9.81,1.78,14.56A7.36,7.36,0,0,1,222,110c-4.38-2.28-7.2-6.52-11.11-9.42A13.26,13.26,0,0,0,204.77,98c-2.57-.34-5.12.27-7.63.74-2.67.49-5.44.76-7.91-.6a11.58,11.58,0,0,1-4.85-5.54c-.51-1.13-2.18-.15-1.67,1,2.1,4.67,6.45,7.85,11.68,7.49,2.77-.2,5.44-1.09,8.21-1.22a11,11,0,0,1,7,2.24c4.29,3.06,7.2,7.76,12.13,10a9.89,9.89,0,0,0,7.43.58,9.71,9.71,0,0,0,5-4.34c3.24-5.56,1.16-12-1.31-17.41-.51-1.13-2.18-.15-1.66,1Z" fill="#2f2e41"/><path d="M209.55,137.08c-2.12-.06-4.77-.14-6.81-1.62a5.26,5.26,0,0,1-2.06-3.91,3.52,3.52,0,0,1,1.2-2.89,4.53,4.53,0,0,1,4.3-.62l-1.74-12.7,1.27-.17,2,14.92-1.07-.49c-1.23-.56-2.93-.85-4,0a2.23,2.23,0,0,0-.74,1.86,4,4,0,0,0,1.53,2.92c1.59,1.16,3.7,1.31,6.09,1.37Z" fill="#2f2e41"/><rect x="191.2" y="116.44" width="6.93" height="1.29" fill="#2f2e41"/><rect x="213.08" y="116.44" width="6.93" height="1.29" fill="#2f2e41"/><path d="M179.86,183.45l-30.43-9.28a3.87,3.87,0,0,1-2.62-4.65l3.55-14a3.88,3.88,0,0,1,4.7-2.8,4.19,4.19,0,0,1,.7.26L186,167.34a3.86,3.86,0,0,1,2.25,5l-3.36,8.89A3.87,3.87,0,0,1,179.86,183.45Z" fill="#2f2e41"/><path d="M218.2,175.53l13.06,29a3.85,3.85,0,0,0,4.93,2l13.44-5.29a3.87,3.87,0,0,0,2.18-5,3.56,3.56,0,0,0-.35-.67l-18-28.13a3.87,3.87,0,0,0-5.22-1.6l-8.39,4.45A3.88,3.88,0,0,0,218.2,175.53Z" fill="#2f2e41"/><path d="M94.53,81.23,5.06,61.93,3.9,61.68A3.23,3.23,0,0,0,.07,64.15a3.28,3.28,0,0,0,.26,2.11l35.53,72.13a3.2,3.2,0,0,0,5.21.79l24.68-26a1.83,1.83,0,0,1,1.37-.6,1.94,1.94,0,0,1,1.73,1l5.05,9.35a3.15,3.15,0,0,0,3.52,1.61h0a3.14,3.14,0,0,0,2.49-3L81,100a1.92,1.92,0,0,1,.2-.78,2.21,2.21,0,0,1,.51-.63L95.89,86.87a3.21,3.21,0,0,0,.45-4.53,3.27,3.27,0,0,0-1.81-1.11Zm.55,4.65L80.84,97.56a3.45,3.45,0,0,0-.5.51,3.2,3.2,0,0,0-.34.53,2.72,2.72,0,0,0-.23.62h0a3.1,3.1,0,0,0-.1.68l-1,21.58a1.88,1.88,0,0,1-1.5,1.79h0a1.88,1.88,0,0,1-2.12-1L70,113a3.21,3.21,0,0,0-2.64-1.68h0a1.62,1.62,0,0,0-.22,0,3.15,3.15,0,0,0-2.3,1l-24.67,26a1.93,1.93,0,0,1-2.73.06,1.77,1.77,0,0,1-.4-.54L1.49,65.68a1.94,1.94,0,0,1,2.14-2.74l1.19.26L94.26,82.49a1.94,1.94,0,0,1,1.48,2.3,2,2,0,0,1-.66,1.09Z" fill="#3f3d56"/><path d="M80.63,98.2l-.53,1.17-.33-.15h0L4.39,65l62.94,46.24h0l.16.13-.75,1-1.1-.81-62-45.56a1.29,1.29,0,0,1,1.08-2.3l.2.07L80.34,98.07Z" fill="#3f3d56"/>
    </g>
  </g>
</svg>