<svg width="48" height="44" viewBox="0 0 48 44" fill="none" xmlns="http://www.w3.org/2000/svg">
  <path d="M20.9253 36.9394C20.9451 37.6779 20.8179 38.413 20.5511 39.1017C20.2843 39.7903 19.8833 40.4188 19.3714 40.9502C18.86 41.4793 18.2479 41.9002 17.5713 42.1878C16.8948 42.4755 16.1676 42.6241 15.4327 42.625C14.6977 42.6252 13.9701 42.4771 13.2934 42.1893C12.6167 41.9016 12.0047 41.4802 11.4939 40.9502C10.9812 40.4194 10.5795 39.7911 10.3127 39.1023C10.0458 38.4135 9.91914 37.678 9.94012 36.9394C9.95246 35.9796 10.2144 35.0391 10.704 34.2155C11.1922 33.3905 11.8875 32.7113 12.72 32.2451C12.6871 32.395 12.8434 32.1695 12.72 32.2451L15.2709 29.9736C17.2929 27.8159 18.4223 24.9689 18.4306 22.0083C18.4306 17.985 16.0841 13.8944 12.7118 11.7549C12.8407 11.8305 12.6624 11.6256 12.7118 11.7549C11.8789 11.2874 11.1839 10.6077 10.6971 9.7845C10.2087 8.95991 9.94524 8.02098 9.93326 7.062C9.91318 6.32324 10.0403 5.58788 10.3071 4.89895C10.5739 4.21002 10.975 3.58136 11.4871 3.04975C11.9984 2.52084 12.6103 2.10011 13.2866 1.81245C13.9629 1.52479 14.6898 1.37604 15.4245 1.375C16.1595 1.37461 16.8871 1.5227 17.5639 1.81044C18.2406 2.09818 18.8525 2.51967 19.3632 3.04975C19.8762 3.58042 20.2779 4.20873 20.5448 4.89759C20.8117 5.58645 20.9382 6.32193 20.917 7.06063C20.9313 10.0472 22.0827 12.9156 24.1358 15.0796L25.2562 16.1796C25.7033 16.5715 26.1723 16.9373 26.6606 17.2769C27.5122 17.7306 28.2267 18.4126 28.7232 19.2445C29.0949 19.8673 29.3366 20.5592 29.4339 21.2783C29.5311 21.9975 29.4819 22.7289 29.2891 23.4284C29.0962 24.1279 28.7639 24.781 28.3121 25.348C27.8603 25.915 27.2985 26.3842 26.6606 26.7272C26.7058 26.6351 26.5742 26.7768 26.6606 26.7272C24.9378 27.8191 23.5127 29.323 22.5134 31.1039C21.5115 32.8877 20.9659 34.8926 20.9253 36.9394ZM27.0734 7.04413C27.0734 8.13863 27.3957 9.20975 28.0005 10.12C28.6031 11.029 29.4613 11.7382 30.4663 12.1578C31.4703 12.5769 32.5762 12.6866 33.6427 12.4728C34.7091 12.259 35.6879 11.7314 36.4539 10.9574C37.2224 10.1812 37.7453 9.19501 37.9573 8.12226C38.1693 7.04952 38.0609 5.9379 37.6457 4.92663C37.2306 3.9165 36.5262 3.05237 35.6215 2.44338C34.5653 1.73289 33.2954 1.41305 32.0298 1.53875C30.7641 1.66444 29.5814 2.22783 28.6848 3.13225C27.6536 4.17176 27.0743 5.578 27.0734 7.04413ZM32.5687 31.405C31.4825 31.405 30.4197 31.7295 29.5159 32.3372C28.6113 32.9463 27.9069 33.8104 27.4917 34.8205C27.0762 35.832 26.9676 36.9438 27.1796 38.0169C27.3916 39.0899 27.9148 40.0763 28.6834 40.8526C29.4495 41.6266 30.4283 42.1542 31.4947 42.368C32.5612 42.5818 33.6671 42.4722 34.6711 42.053C35.677 41.6329 36.5357 40.9227 37.1383 40.0125C37.8442 38.9468 38.1616 37.6694 38.0366 36.3962C37.9117 35.123 37.3522 33.9321 36.4526 33.0247C35.9436 32.5113 35.3384 32.1037 34.672 31.8253C34.0055 31.5469 33.2907 31.4031 32.5687 31.4022V31.405ZM46.6286 21.9918C46.6286 20.8973 46.3063 19.8275 45.7029 18.9173C45.1004 18.0078 44.2422 17.2981 43.237 16.8781C42.2328 16.4587 41.1267 16.3488 40.0599 16.5626C38.9932 16.7764 38.0142 17.3042 37.248 18.0785C36.4793 18.8548 35.9562 19.8412 35.7442 20.9143C35.5322 21.9873 35.6408 23.0992 36.0562 24.1106C36.4714 25.1208 37.1758 25.9849 38.0805 26.5939C38.9832 27.2016 40.0459 27.5261 41.1333 27.5261C41.8553 27.525 42.5699 27.3812 43.2364 27.1027C43.9029 26.8243 44.508 26.4168 45.0172 25.9036C46.0485 24.8636 46.6277 23.4569 46.6286 21.9904V21.9918Z" fill="#161E2E"/>
  <path d="M6.86674 16.4574C5.7792 16.4574 4.71771 16.7819 3.81394 17.3896C2.9091 17.999 2.20469 18.8637 1.78971 19.8742C1.37453 20.8855 1.26615 21.9971 1.47814 23.0699C1.69013 24.1426 2.21307 25.1288 2.98148 25.905C3.74865 26.6773 4.72735 27.2037 5.79339 27.4174C6.85942 27.6311 7.96476 27.5225 8.96914 27.1054C9.97427 26.6853 10.8325 25.9757 11.435 25.0662C12.1405 24.0009 12.4575 22.724 12.3326 21.4513C12.2077 20.1787 11.6484 18.9883 10.7493 18.0812C10.2403 17.568 9.63545 17.1604 8.96925 16.8818C8.30305 16.6031 7.58858 16.4589 6.86674 16.4574Z" fill="#161E2E"/>
</svg>
