<svg width="296" height="44" fill="none" xmlns="http://www.w3.org/2000/svg"><path opacity=".5" d="M22 42.106c11.046 0 20-8.978 20-20.053C42 10.978 33.046 2 22 2S2 10.978 2 22.053c0 11.075 8.954 20.053 20 20.053z" fill="url(#paint0_linear)"/><path d="M22.04 42.554c11.367 0 20.577-9.238 20.577-20.629 0-11.39-9.21-20.63-20.577-20.63s-20.577 9.24-20.577 20.63c0 11.39 9.21 20.63 20.577 20.63z" fill="#FDF2F2" stroke="#fff" stroke-width="2"/><path d="M32.81 23.86c0 6.53-4.678 9.743-10.755 9.743-6.076 0-11.245-3.213-11.245-9.744 0-6.53 4.925-11.823 11-11.823s11 5.288 11 11.824z" fill="#333"/><path d="M22.055 41.632a19.448 19.448 0 0010.764-3.229c-.722-3.952-3.467-4.179-3.467-4.179H14.213s-2.588.213-3.4 3.85a19.452 19.452 0 0011.242 3.558z" fill="#FACA15"/><path opacity=".1" d="M18.8 29.398h6.056v4.857a3.043 3.043 0 01-.887 2.152 3.025 3.025 0 01-2.147.889c-.802 0-1.572-.32-2.14-.89a3.04 3.04 0 01-.887-2.145v-4.863h.005z" fill="#000"/><path d="M19.377 29.179h4.9a.577.577 0 01.577.58v4.277a3.04 3.04 0 01-1.872 2.805 3.024 3.024 0 01-3.3-.66 3.04 3.04 0 01-.887-2.145v-4.28a.58.58 0 01.578-.58l.004.003z" fill="#FDA57D"/><path opacity=".1" d="M18.813 31.696c1.951.732 4.1.738 6.055.018v-.746h-6.055v.728z" fill="#000"/><path d="M21.85 32.101c4.793 0 8.679-3.896 8.679-8.702s-3.886-8.702-8.68-8.702c-4.792 0-8.678 3.896-8.678 8.702s3.886 8.702 8.679 8.702z" fill="#FDA57D"/><path opacity=".1" d="M11.847 23.969s5.405-.658 9.492-5.911c0 0 5.405 5.966 9.17 5.308 0 0 2.184-2.3 0-4.597-2.182-2.298-3.875-5.2-6.768-4.817-2.892.382-6.442.546-7.97 1.915-1.527 1.369-3.924 8.102-3.924 8.102z" fill="#000"/><path d="M11.847 23.86s5.405-.658 9.492-5.911c0 0 5.405 5.966 9.17 5.308 0 0 2.184-2.3 0-4.597-2.182-2.298-3.875-5.2-6.768-4.818-2.892.383-6.435.54-7.962 1.925-1.528 1.384-3.932 8.093-3.932 8.093z" fill="#333"/><path d="M13.168 24.91c.446 0 .807-.68.807-1.518s-.361-1.517-.807-1.517c-.447 0-.808.68-.808 1.517 0 .838.361 1.518.808 1.518zM30.527 24.91c.446 0 .808-.68.808-1.518s-.362-1.517-.808-1.517c-.446 0-.808.68-.808 1.517 0 .838.362 1.518.808 1.518z" fill="#FDA57D"/><path opacity=".5" d="M58 42.106c11.046 0 20-8.978 20-20.053C78 10.978 69.046 2 58 2s-20 8.978-20 20.053c0 11.075 8.954 20.053 20 20.053z" fill="url(#paint1_linear)"/><path d="M58 42.573c11.367 0 20.577-9.238 20.577-20.629 0-11.39-9.21-20.63-20.577-20.63s-20.577 9.24-20.577 20.63c0 11.39 9.21 20.63 20.577 20.63z" fill="#FDF2F2" stroke="#fff" stroke-width="2"/><path d="M58.055 41.629a19.449 19.449 0 0010.762-3.23c-.721-3.951-3.467-4.178-3.467-4.178H50.213s-2.588.213-3.4 3.85a19.453 19.453 0 0011.242 3.558z" fill="#9061F9"/><path d="M57.85 30.213c4.793 0 8.679-3.896 8.679-8.701 0-4.806-3.886-8.703-8.68-8.703-4.792 0-8.678 3.897-8.678 8.703 0 4.805 3.886 8.701 8.679 8.701z" fill="#333"/><path opacity=".1" d="M54.8 29.404h6.056v4.857a3.04 3.04 0 01-.886 2.146 3.023 3.023 0 01-4.281 0 3.04 3.04 0 01-.887-2.146v-4.857H54.8z" fill="#000"/><path d="M55.379 29.179h4.899a.577.577 0 01.578.58v4.277a3.04 3.04 0 01-.886 2.146 3.023 3.023 0 01-4.281 0 3.04 3.04 0 01-.887-2.146v-4.278a.58.58 0 01.577-.58z" fill="#BE7C5E"/><path opacity=".1" d="M54.813 31.696c1.951.732 4.1.738 6.055.018v-.746h-6.056v.728z" fill="#000"/><path d="M57.85 32.103c4.793 0 8.679-3.896 8.679-8.702s-3.886-8.702-8.68-8.702c-4.792 0-8.678 3.896-8.678 8.702s3.886 8.702 8.679 8.702z" fill="#BE7C5E"/><path d="M52.591 19.812c.102-.375.23-.789.566-.984.266-.156.596-.132.903-.116 2.399.131 4.777-.417 7.11-.99 1.334-.327 2.761-.725 3.624-1.803.863-1.078-.262-4.466-1.575-4.866-.863-.264-1.864.229-2.682-.159-.364-.173-.632-.497-.946-.75-.644-.518-1.47-.728-2.271-.925-.935-.232-1.947-.459-2.835-.086-.69.287-1.195.894-1.849 1.254-1.244.692-2.761.37-4.186.367-.482 0-1.057.097-1.248.54-.13.3-.026.643-.012.97.041 1.039-.813 1.847-1.53 2.596-.715.75-1.392 1.819-.94 2.75.173.354.489.622.668.974.309.609.154 1.344.266 2.017.112.511.302 1.001.564 1.454.532 1.038 3.201 6.627 4.428 5.206.594-.692.69-2.692.93-3.592.332-1.293.67-2.579 1.015-3.857z" fill="#333"/><path d="M51.675 24.602c.446 0 .808-.68.808-1.518s-.362-1.517-.808-1.517c-.446 0-.808.68-.808 1.517 0 .838.362 1.518.808 1.518z" fill="#BE7C5E"/><path d="M85.349 24.547c.446 0 .807-.68.807-1.518s-.361-1.518-.807-1.518c-.446 0-.808.68-.808 1.518s.362 1.518.808 1.518z" fill="#FDB797"/><path opacity=".5" d="M94 42.106c11.046 0 20-8.978 20-20.053C114 10.978 105.046 2 94 2s-20 8.978-20 20.053c0 11.075 8.954 20.053 20 20.053z" fill="url(#paint2_linear)"/><path d="M94 42.573c11.367 0 20.577-9.238 20.577-20.629 0-11.39-9.21-20.63-20.577-20.63s-20.577 9.24-20.577 20.63c0 11.39 9.21 20.63 20.577 20.63z" fill="#FDF2F2" stroke="#fff" stroke-width="2"/><path d="M94.055 41.632a19.447 19.447 0 0010.762-3.229c-.721-3.952-3.467-4.179-3.467-4.179H86.212s-2.59.213-3.4 3.85a19.452 19.452 0 0011.243 3.558z" fill="#84E1BC"/><path opacity=".1" d="M90.799 29.404h6.055v4.857a3.04 3.04 0 01-.886 2.146 3.02 3.02 0 01-4.282 0 3.036 3.036 0 01-.887-2.146v-4.857z" fill="#000"/><path d="M91.377 29.179h4.9a.577.577 0 01.578.58v4.277a3.04 3.04 0 01-.887 2.146 3.02 3.02 0 01-4.282 0 3.036 3.036 0 01-.887-2.146v-4.278a.58.58 0 01.578-.58z" fill="#FDB797"/><path opacity=".1" d="M90.81 31.696c1.952.732 4.1.738 6.056.018v-.746h-6.055v.728z" fill="#000"/><path d="M93.848 32.103c4.793 0 8.679-3.896 8.679-8.702s-3.886-8.702-8.679-8.702-8.679 3.896-8.679 8.702 3.886 8.702 8.68 8.702z" fill="#FDB797"/><path d="M102.303 24.547c.446 0 .807-.68.807-1.518s-.361-1.518-.807-1.518c-.446 0-.808.68-.808 1.518s.362 1.518.808 1.518z" fill="#FDB797"/><path d="M91.522 23.442h-2.21a.752.752 0 00-.752.753v.357c0 .415.337.752.751.752h2.21c.415 0 .751-.337.751-.752v-.357a.752.752 0 00-.75-.753zM96.176 25.303h2.21c.416 0 .752-.337.752-.753v-.357a.752.752 0 00-.751-.752h-2.21a.752.752 0 00-.752.753v.356c0 .416.337.753.751.753zM92.131 23.622s1.177-.64 3.365 0" stroke="#333" stroke-width="2" stroke-miterlimit="10"/><path d="M99.849 17.094l2.129 4.96s2.604-3.29-2.13-4.96z" fill="#858585"/><path d="M99.138 24.373l3.179-2.846" stroke="#333" stroke-width="2" stroke-linecap="round" stroke-linejoin="round"/><path d="M87.851 17.094l-2.13 4.96s-2.604-3.29 2.13-4.96z" fill="#858585"/><path d="M88.56 24.373l-3.222-2.846" stroke="#333" stroke-width="2" stroke-linecap="round" stroke-linejoin="round"/><path d="M138.304 24.547c.446 0 .808-.68.808-1.518s-.362-1.517-.808-1.517c-.446 0-.807.679-.807 1.517 0 .838.361 1.518.807 1.518z" fill="#FDB797"/><path opacity=".5" d="M130 42.106c11.046 0 20-8.978 20-20.053C150 10.978 141.046 2 130 2s-20 8.978-20 20.053c0 11.075 8.954 20.053 20 20.053z" fill="url(#paint3_linear)"/><path d="M130 42.573c11.367 0 20.577-9.238 20.577-20.629 0-11.39-9.21-20.63-20.577-20.63s-20.577 9.24-20.577 20.63c0 11.39 9.21 20.63 20.577 20.63z" fill="#FDF2F2" stroke="#fff" stroke-width="2"/><path d="M140.829 23.709c0 7.23-4.704 15.277-10.508 15.277-5.804 0-10.503-8.048-10.503-15.277 0-7.23 4.704-10.901 10.508-10.901 5.804 0 10.503 3.673 10.503 10.901z" fill="#FDD835"/><path d="M130.055 41.634a19.447 19.447 0 0010.762-3.23c-.721-3.951-3.467-4.178-3.467-4.178h-15.137s-2.588.213-3.399 3.85a19.451 19.451 0 0011.241 3.558z" fill="#6C63FF"/><path opacity=".1" d="M126.8 29.404h6.056v4.857c0 .805-.319 1.577-.886 2.146a3.025 3.025 0 01-5.168-2.146v-4.857h-.002z" fill="#000"/><path d="M127.379 29.179h4.899a.58.58 0 01.578.58v4.277c0 .805-.319 1.577-.886 2.146a3.02 3.02 0 01-4.281 0 3.038 3.038 0 01-.887-2.146v-4.278a.581.581 0 01.577-.58z" fill="#FDB797"/><path opacity=".1" d="M126.812 31.696c1.952.732 4.1.738 6.056.018v-.746h-6.056v.728z" fill="#000"/><path d="M129.85 32.103c4.793 0 8.679-3.896 8.679-8.702s-3.886-8.702-8.679-8.702-8.679 3.896-8.679 8.702 3.886 8.702 8.679 8.702z" fill="#FDB797"/><path d="M121.35 24.547c.447 0 .808-.68.808-1.518s-.361-1.517-.808-1.517c-.446 0-.807.679-.807 1.517 0 .838.361 1.518.807 1.518z" fill="#FDB797"/><path opacity=".1" d="M122.16 18.68s4.906 6.733 16.158 4.434c0 0 1.257-1.533-1.801-6.24-3.059-4.706-11.574-3.94-14.357 1.807z" fill="#000"/><path d="M122.16 18.572s4.906 6.732 16.158 4.433c0 0 1.257-1.533-1.801-6.24-3.059-4.707-11.574-3.94-14.357 1.807z" fill="#FDD835"/><path d="M174.303 24.547c.446 0 .807-.68.807-1.518s-.361-1.517-.807-1.517c-.446 0-.808.679-.808 1.517 0 .838.362 1.518.808 1.518z" fill="#BE7C5E"/><path opacity=".5" d="M166 42.106c11.046 0 20-8.978 20-20.053C186 10.978 177.046 2 166 2s-20 8.978-20 20.053c0 11.075 8.954 20.053 20 20.053z" fill="url(#paint4_linear)"/><path d="M166 42.573c11.367 0 20.577-9.238 20.577-20.629 0-11.39-9.21-20.63-20.577-20.63s-20.577 9.24-20.577 20.63c0 11.39 9.21 20.63 20.577 20.63z" fill="#FDF2F2" stroke="#fff" stroke-width="2"/><path d="M158.363 22.119s-2.219 10.963-3.43 10.356c0 0 11.683 10.12 22 0 0 0-1.817-7.726-4.441-10.356h-14.129z" fill="#333"/><path d="M166.055 41.632a19.447 19.447 0 0010.762-3.229c-.721-3.952-3.467-4.179-3.467-4.179h-15.138s-2.589.213-3.4 3.85a19.45 19.45 0 0011.243 3.558z" fill="#F8B4D9"/><path d="M165.848 30.213c4.793 0 8.679-3.896 8.679-8.701 0-4.806-3.886-8.703-8.679-8.703s-8.679 3.897-8.679 8.703c0 4.805 3.886 8.701 8.679 8.701z" fill="#333"/><path opacity=".1" d="M162.799 29.404h6.055v4.857c0 .804-.318 1.575-.884 2.144a3.023 3.023 0 01-2.137.89c-.803 0-1.573-.319-2.141-.888a3.042 3.042 0 01-.886-2.146v-4.857h-.007z" fill="#000"/><path d="M163.377 29.179h4.899a.576.576 0 01.578.58v4.277a3.04 3.04 0 01-.884 2.144 3.024 3.024 0 01-2.137.89c-.803 0-1.573-.319-2.141-.888a3.037 3.037 0 01-.886-2.146v-4.28a.578.578 0 01.571-.577z" fill="#BE7C5E"/><path opacity=".1" d="M162.811 31.696c1.951.732 4.1.738 6.056.018v-.746h-6.056v.728z" fill="#000"/><path d="M165.848 32.101c4.793 0 8.679-3.896 8.679-8.702s-3.886-8.702-8.679-8.702-8.679 3.896-8.679 8.702 3.886 8.702 8.679 8.702z" fill="#BE7C5E"/><path d="M157.552 20.094h16.551s-1.414-6.7-7.67-6.272c-6.256.427-8.881 6.272-8.881 6.272z" fill="#333"/><path d="M157.349 24.547c.446 0 .807-.68.807-1.518s-.361-1.517-.807-1.517c-.446 0-.808.679-.808 1.517 0 .838.362 1.518.808 1.518z" fill="#BE7C5E"/><path opacity=".1" d="M157.552 20.32h16.551s-1.414-6.7-7.67-6.273c-6.256.427-8.881 6.272-8.881 6.272z" fill="#000"/><path d="M193.167 24.91c.447 0 .808-.68.808-1.518s-.361-1.517-.808-1.517c-.446 0-.807.68-.807 1.517 0 .838.361 1.518.807 1.518z" fill="#FDA57D"/><path opacity=".5" d="M202 42.106c11.046 0 20-8.978 20-20.053C222 10.978 213.046 2 202 2s-20 8.978-20 20.053c0 11.075 8.954 20.053 20 20.053z" fill="url(#paint5_linear)"/><path d="M202.038 42.554c11.367 0 20.577-9.238 20.577-20.629 0-11.39-9.21-20.63-20.577-20.63s-20.577 9.24-20.577 20.63c0 11.39 9.21 20.63 20.577 20.63z" fill="#FDF2F2" stroke="#fff" stroke-width="2"/><path d="M202.055 41.632a19.445 19.445 0 0010.755-3.229c-.721-3.952-3.467-4.179-3.467-4.179h-15.131s-2.589.213-3.4 3.85a19.45 19.45 0 0011.243 3.558z" fill="#F05252"/><path d="M201.848 30.987c5.219 0 9.45-4.242 9.45-9.475 0-5.234-4.231-9.476-9.45-9.476-5.219 0-9.45 4.242-9.45 9.476 0 5.233 4.231 9.475 9.45 9.475z" fill="#F55F44"/><path opacity=".1" d="M198.799 29.404h6.055v4.857c0 .805-.318 1.577-.886 2.146a3.025 3.025 0 01-5.168-2.146v-4.857h-.001z" fill="#000"/><path d="M199.377 29.179h4.899a.582.582 0 01.409.17.574.574 0 01.169.41v4.277a3.044 3.044 0 01-.886 2.146 3.028 3.028 0 01-2.141.889 3.02 3.02 0 01-2.796-1.874 3.045 3.045 0 01-.231-1.161v-4.278a.579.579 0 01.579-.58h-.002z" fill="#FDA57D"/><path opacity=".1" d="M198.811 31.696c1.951.732 4.1.738 6.055.018v-.746h-6.055v.728z" fill="#000"/><path d="M201.848 32.103c4.793 0 8.679-3.896 8.679-8.702s-3.886-8.702-8.679-8.702-8.679 3.896-8.679 8.702 3.886 8.702 8.679 8.702z" fill="#FDA57D"/><path d="M201.836 15.376a3.498 3.498 0 003.493-3.503 3.498 3.498 0 00-3.493-3.502 3.498 3.498 0 00-3.493 3.502 3.498 3.498 0 003.493 3.503z" fill="#F55F44"/><path d="M201.836 10.725a2.297 2.297 0 002.294-2.3c0-1.27-1.027-2.3-2.294-2.3a2.297 2.297 0 00-2.294 2.3c0 1.27 1.027 2.3 2.294 2.3z" fill="#F55F44"/><path d="M200.321 13.794a3.496 3.496 0 01-1.805-1.873 3.51 3.51 0 01-.016-2.605 3.519 3.519 0 00-.148 2.829 3.498 3.498 0 003.164 2.255 3.487 3.487 0 003.352-2.22 3.494 3.494 0 01-1.951 1.72c-.847.301-1.777.263-2.596-.106z" fill="#F55F44"/><path opacity=".1" d="M195.668 15.486s3.657 7.44 13.979 3.115l-2.402-3.777-4.258-1.533-7.319 2.195z" fill="#000"/><path d="M195.668 15.376s3.657 7.44 13.979 3.114l-2.402-3.777-4.258-1.533-7.319 2.196z" fill="#F55F44"/><path d="M198.486 12.666a43 43 0 016.762 0s-4.995.465-6.762 0z" fill="#333"/><path d="M202.361 5.985a2.29 2.29 0 00-.518.04h.133a2.287 2.287 0 011.511.636 2.303 2.303 0 01.232 3.062c-.344.449-.842.754-1.398.858a2.29 2.29 0 001.627-.659 2.303 2.303 0 00.029-3.25 2.29 2.29 0 00-1.615-.687h-.001z" fill="#F55F44"/><path d="M210.527 24.91c.446 0 .808-.68.808-1.518s-.362-1.517-.808-1.517c-.446 0-.808.68-.808 1.517 0 .838.362 1.518.808 1.518z" fill="#FDA57D"/><path d="M195.121 15.595l1.693-.875.381 1.403-1.037.708-1.037-1.236z" fill="#F55F44"/><path d="M229.168 24.908c.446 0 .807-.68.807-1.517 0-.838-.361-1.518-.807-1.518-.447 0-.808.68-.808 1.518s.361 1.517.808 1.517z" fill="#FDA57D"/><path opacity=".5" d="M238 42.106c11.046 0 20-8.978 20-20.053C258 10.978 249.046 2 238 2s-20 8.978-20 20.053c0 11.075 8.954 20.053 20 20.053z" fill="url(#paint6_linear)"/><path d="M238.038 42.552c11.367 0 20.577-9.238 20.577-20.629 0-11.39-9.21-20.629-20.577-20.629s-20.577 9.239-20.577 20.63c0 11.39 9.21 20.628 20.577 20.628z" fill="#FDF2F2" stroke="#fff" stroke-width="2"/><path d="M238.055 41.632a19.447 19.447 0 0010.762-3.229c-.723-3.954-3.467-4.18-3.467-4.18h-15.137s-2.588.212-3.399 3.85a19.447 19.447 0 0011.241 3.559z" fill="#FF5A1F"/><path d="M237.85 30.985c5.219 0 9.45-4.242 9.45-9.475s-4.231-9.476-9.45-9.476c-5.219 0-9.45 4.243-9.45 9.476 0 5.233 4.231 9.475 9.45 9.475z" fill="#72351C"/><path opacity=".1" d="M234.799 29.402h6.055v4.857a3.042 3.042 0 01-1.867 2.809 3.024 3.024 0 01-3.3-.657 3.038 3.038 0 01-.887-2.147v-4.862h-.001z" fill="#000"/><path d="M235.372 29.177h4.899a.578.578 0 01.578.58v4.277c0 .805-.319 1.577-.886 2.146a3.025 3.025 0 01-5.168-2.146v-4.277a.579.579 0 01.578-.58h-.001z" fill="#FDA57D"/><path opacity=".1" d="M234.806 31.695c1.951.73 4.1.737 6.055.017v-.746h-6.055v.729z" fill="#000"/><path d="M237.85 32.101c4.793 0 8.679-3.896 8.679-8.702s-3.886-8.702-8.679-8.702-8.679 3.896-8.679 8.702 3.886 8.702 8.679 8.702z" fill="#FDA57D"/><path opacity=".1" d="M231.668 15.485s3.657 7.44 13.979 3.114l-2.402-3.777-4.258-1.533-7.319 2.196z" fill="#000"/><path d="M231.668 15.376s3.657 7.44 13.979 3.114l-2.402-3.777-4.258-1.533-7.319 2.196z" fill="#72351C"/><path d="M231.635 14.872a5.034 5.034 0 011.243-2.026c1.707-1.692 4.506-2.049 5.942-3.98a1.128 1.128 0 01-.518 1.588c1.381-.008 2.97-.13 3.747-1.264.192.448.253.942.177 1.424a2.593 2.593 0 01-.61 1.3c1.218.055 2.519.883 2.599 2.105.051.813-.456 1.583-1.124 2.05-.668.468-1.472.677-2.266.85-2.316.52-10.701 2.667-9.19-2.047zM246.529 23.475h-.23l-4.476 4c-4.315-2.025-7.48 0-7.48 0l-4.694-3.832-.473.06a8.713 8.713 0 002.666 6.032 8.665 8.665 0 0012.178-.156 8.716 8.716 0 002.511-6.1l-.002-.004zm-8.691 5.529c-1.688 0-3.057-.346-3.057-.767 0-.42 1.369-.766 3.057-.766s3.056.346 3.056.766c0 .42-1.368.767-3.058.767h.002z" fill="#72351C"/><path d="M246.527 24.908c.446 0 .808-.68.808-1.517 0-.838-.362-1.518-.808-1.518-.446 0-.808.68-.808 1.518s.362 1.517.808 1.517z" fill="#FDA57D"/><path opacity=".5" d="M274 42.106c11.046 0 20-8.978 20-20.053C294 10.978 285.046 2 274 2s-20 8.978-20 20.053c0 11.075 8.954 20.053 20 20.053z" fill="url(#paint7_linear)"/><path d="M274.038 42.554c11.367 0 20.577-9.238 20.577-20.629 0-11.39-9.21-20.63-20.577-20.63s-20.577 9.24-20.577 20.63c0 11.39 9.21 20.63 20.577 20.63z" fill="#FDF2F2" stroke="#fff" stroke-width="2"/><path d="M274.055 41.632a19.446 19.446 0 0010.76-3.229c-.721-3.952-3.467-4.179-3.467-4.179h-15.143s-2.589.213-3.4 3.85a19.451 19.451 0 0011.25 3.558z" fill="#6C63FF"/><path d="M273.848 30.987c5.219 0 9.45-4.242 9.45-9.475 0-5.234-4.231-9.476-9.45-9.476-5.219 0-9.45 4.242-9.45 9.476 0 5.233 4.231 9.475 9.45 9.475z" fill="#333"/><path opacity=".1" d="M270.799 29.404h6.055v4.857c0 .805-.318 1.577-.886 2.146a3.024 3.024 0 01-4.281 0 3.038 3.038 0 01-.887-2.146v-4.857h-.001z" fill="#000"/><path d="M271.377 29.179h4.899a.576.576 0 01.578.58v4.28c0 .805-.318 1.577-.886 2.146a3.025 3.025 0 01-5.169-2.146v-4.283a.582.582 0 01.578-.58v.003z" fill="#FDB797"/><path opacity=".1" d="M270.811 31.696c1.951.732 4.1.738 6.055.018v-.751h-6.055v.733z" fill="#000"/><path d="M273.848 32.103c4.793 0 8.679-3.896 8.679-8.702s-3.886-8.702-8.679-8.702-8.679 3.896-8.679 8.702 3.886 8.702 8.679 8.702z" fill="#FDB797"/><path opacity=".1" d="M267.668 15.485s3.657 7.44 13.979 3.114l-2.402-3.777-4.258-1.533-7.319 2.196z" fill="#000"/><path d="M267.668 15.376s3.657 7.44 13.979 3.114l-2.402-3.777-4.258-1.533-7.319 2.196z" fill="#333"/><path d="M267.635 14.87a5.034 5.034 0 011.243-2.026c1.707-1.692 4.506-2.049 5.942-3.98a1.128 1.128 0 01-.518 1.589c1.381-.009 2.97-.13 3.747-1.265a2.592 2.592 0 01-.433 2.724c1.218.055 2.519.884 2.599 2.105.051.814-.456 1.584-1.124 2.05-.668.468-1.474.68-2.268.857-2.316.516-10.699 2.663-9.188-2.054z" fill="#333"/><path d="M265.166 24.91c.446 0 .807-.68.807-1.518s-.361-1.517-.807-1.517c-.446 0-.808.68-.808 1.517 0 .838.362 1.518.808 1.518zM282.525 24.91c.446 0 .808-.68.808-1.518s-.362-1.517-.808-1.517c-.446 0-.807.68-.807 1.517 0 .838.361 1.518.807 1.518z" fill="#FDB797"/><defs><linearGradient id="paint0_linear" x1="15683.2" y1="30339.9" x2="15683.2" y2="21044.5" gradientUnits="userSpaceOnUse"><stop stop-color="gray" stop-opacity=".25"/><stop offset=".54" stop-color="gray" stop-opacity=".12"/><stop offset="1" stop-color="gray" stop-opacity=".1"/></linearGradient><linearGradient id="paint1_linear" x1="58" y1="42.106" x2="58" y2="2.002" gradientUnits="userSpaceOnUse"><stop stop-color="gray" stop-opacity=".25"/><stop offset=".54" stop-color="gray" stop-opacity=".12"/><stop offset="1" stop-color="gray" stop-opacity=".1"/></linearGradient><linearGradient id="paint2_linear" x1="26696" y1="19873.4" x2="26696" y2="10578" gradientUnits="userSpaceOnUse"><stop stop-color="gray" stop-opacity=".25"/><stop offset=".54" stop-color="gray" stop-opacity=".12"/><stop offset="1" stop-color="gray" stop-opacity=".1"/></linearGradient><linearGradient id="paint3_linear" x1="4778.8" y1="29806.9" x2="4778.8" y2="20511.5" gradientUnits="userSpaceOnUse"><stop stop-color="gray" stop-opacity=".25"/><stop offset=".54" stop-color="gray" stop-opacity=".12"/><stop offset="1" stop-color="gray" stop-opacity=".1"/></linearGradient><linearGradient id="paint4_linear" x1="15544.8" y1="9318.25" x2="15544.8" y2="22.454" gradientUnits="userSpaceOnUse"><stop stop-color="gray" stop-opacity=".25"/><stop offset=".54" stop-color="gray" stop-opacity=".12"/><stop offset="1" stop-color="gray" stop-opacity=".1"/></linearGradient><linearGradient id="paint5_linear" x1="15585.2" y1="19662.4" x2="15585.2" y2="10367" gradientUnits="userSpaceOnUse"><stop stop-color="gray" stop-opacity=".25"/><stop offset=".54" stop-color="gray" stop-opacity=".12"/><stop offset="1" stop-color="gray" stop-opacity=".1"/></linearGradient><linearGradient id="paint6_linear" x1="26667.2" y1="9297.39" x2="26667.2" y2="2" gradientUnits="userSpaceOnUse"><stop stop-color="gray" stop-opacity=".25"/><stop offset=".54" stop-color="gray" stop-opacity=".12"/><stop offset="1" stop-color="gray" stop-opacity=".1"/></linearGradient><linearGradient id="paint7_linear" x1="4889.6" y1="19358" x2="4889.6" y2="10062.6" gradientUnits="userSpaceOnUse"><stop stop-color="gray" stop-opacity=".25"/><stop offset=".54" stop-color="gray" stop-opacity=".12"/><stop offset="1" stop-color="gray" stop-opacity=".1"/></linearGradient></defs></svg>