<svg width="36" height="36" viewBox="0 0 36 36" fill="none" xmlns="http://www.w3.org/2000/svg">
  <path d="M18 7C13.2003 7 10.1997 9.33362 9 14C10.8 11.6664 12.8997 10.7914 15.3 11.375C16.6698 11.7075 17.6481 12.6735 18.7317 13.7427C20.4957 15.484 22.5387 17.5 27 17.5C31.7997 17.5 34.8003 15.1664 36 10.5C34.2 12.8336 32.1003 13.7086 29.7 13.125C28.3311 12.7925 27.3519 11.8265 26.2683 10.7573C24.5043 9.016 22.4613 7 18 7ZM9 17.5C4.2003 17.5 1.1997 19.8336 0 24.5C1.8 22.1664 3.8997 21.2914 6.3 21.875C7.6689 22.2075 8.6481 23.1735 9.7317 24.2428C11.4957 25.984 13.5387 28 18 28C22.7997 28 25.8003 25.6664 27 21C25.2 23.3336 23.1003 24.2086 20.7 23.625C19.3311 23.2925 18.3519 22.3265 17.2683 21.2573C15.5043 19.516 13.4613 17.5 9 17.5Z" fill="#16BDCA"/>
</svg>
