<svg width="36" height="36" viewBox="0 0 36 36" fill="none" xmlns="http://www.w3.org/2000/svg">
  <path d="M16.3649 26.8278C16.3766 27.2642 16.3014 27.6986 16.1438 28.1055C15.9861 28.5125 15.7492 28.8838 15.4467 29.1979C15.1445 29.5105 14.7828 29.7592 14.383 29.9292C13.9833 30.0991 13.5535 30.187 13.1193 30.1875C12.6849 30.1876 12.255 30.1001 11.8552 29.9301C11.4553 29.76 11.0937 29.511 10.7918 29.1979C10.4888 28.8842 10.2515 28.5129 10.0938 28.1059C9.93613 27.6989 9.86128 27.2643 9.87368 26.8278C9.88097 26.2607 10.0358 25.7049 10.3251 25.2183C10.6136 24.7308 11.0244 24.3294 11.5163 24.0539C11.4969 24.1425 11.5893 24.0093 11.5163 24.0539L13.0237 22.7117C14.2185 21.4367 14.8859 19.7544 14.8908 18.0049C14.8908 15.6275 13.5042 13.2103 11.5115 11.9461C11.5877 11.9908 11.4823 11.8697 11.5115 11.9461C11.0193 11.6698 10.6087 11.2682 10.321 10.7818C10.0324 10.2945 9.8767 9.73967 9.86962 9.173C9.85776 8.73646 9.93285 8.30193 10.0905 7.89483C10.2482 7.48774 10.4852 7.11626 10.7878 6.80213C11.0899 6.48959 11.4515 6.24098 11.8511 6.07099C12.2507 5.90101 12.6803 5.81311 13.1144 5.8125C13.5488 5.81227 13.9787 5.89978 14.3786 6.06981C14.7785 6.23983 15.1401 6.4889 15.4419 6.80213C15.745 7.11571 15.9824 7.48697 16.1401 7.89403C16.2978 8.30109 16.3726 8.73569 16.36 9.17219C16.3685 10.937 17.0488 12.632 18.262 13.9107L18.9241 14.5607C19.1883 14.7923 19.4654 15.0084 19.7539 15.2091C20.2572 15.4772 20.6794 15.8802 20.9728 16.3718C21.1924 16.7398 21.3352 17.1486 21.3927 17.5735C21.4502 17.9985 21.4211 18.4307 21.3071 18.8441C21.1932 19.2574 20.9968 19.6433 20.7298 19.9783C20.4629 20.3134 20.1309 20.5907 19.7539 20.7934C19.7807 20.7389 19.7029 20.8226 19.7539 20.7934C18.736 21.4385 17.8939 22.3272 17.3033 23.3796C16.7113 24.4337 16.3889 25.6183 16.3649 26.8278ZM19.9979 9.16244C19.9979 9.80919 20.1883 10.4421 20.5457 10.98C20.9018 11.5171 21.4089 11.9362 22.0028 12.1841C22.5961 12.4318 23.2495 12.4966 23.8797 12.3703C24.5099 12.2439 25.0883 11.9322 25.5409 11.4748C25.995 11.0162 26.304 10.4334 26.4293 9.79952C26.5545 9.16562 26.4905 8.50876 26.2452 7.91119C25.9999 7.31429 25.5836 6.80367 25.049 6.44381C24.4249 6.02398 23.6746 5.83499 22.9266 5.90926C22.1787 5.98353 21.4799 6.31644 20.9501 6.85088C20.3407 7.46513 19.9984 8.29609 19.9979 9.16244ZM23.2451 23.5575C22.6033 23.5575 21.9752 23.7493 21.4412 24.1084C20.9066 24.4683 20.4904 24.9789 20.245 25.5758C19.9995 26.1734 19.9354 26.8305 20.0607 27.4645C20.1859 28.0986 20.4951 28.6815 20.9493 29.1402C21.402 29.5976 21.9803 29.9093 22.6105 30.0357C23.2407 30.162 23.8941 30.0972 24.4874 29.8495C25.0818 29.6013 25.5892 29.1816 25.9453 28.6438C26.3625 28.014 26.55 27.2592 26.4762 26.5068C26.4023 25.7545 26.0717 25.0508 25.5401 24.5146C25.2393 24.2113 24.8818 23.9704 24.4879 23.8059C24.0941 23.6413 23.6718 23.5564 23.2451 23.5559V23.5575ZM31.5532 17.9951C31.5532 17.3484 31.3628 16.7163 31.0062 16.1784C30.6502 15.641 30.1431 15.2216 29.5491 14.9734C28.9557 14.7256 28.3021 14.6607 27.6718 14.787C27.0414 14.9134 26.4629 15.2252 26.0102 15.6828C25.5559 16.1415 25.2468 16.7244 25.1216 17.3584C24.9963 17.9925 25.0604 18.6495 25.3059 19.2472C25.5512 19.8441 25.9675 20.3547 26.5021 20.7146C27.0355 21.0737 27.6635 21.2654 28.306 21.2654C28.7326 21.2648 29.1549 21.1798 29.5488 21.0153C29.9426 20.8507 30.3001 20.61 30.601 20.3067C31.2104 19.6921 31.5527 18.8609 31.5532 17.9943V17.9951Z" fill="#6875F5"/>
  <path d="M8.05761 14.7248C7.41497 14.7248 6.78773 14.9166 6.25368 15.2757C5.719 15.6358 5.30276 16.1467 5.05755 16.7439C4.81221 17.3415 4.74817 17.9983 4.87344 18.6322C4.9987 19.2661 5.30771 19.8489 5.76177 20.3075C6.2151 20.7639 6.79342 21.0749 7.42335 21.2012C8.05329 21.3275 8.70644 21.2633 9.29993 21.0168C9.89388 20.7686 10.401 20.3493 10.757 19.8119C11.1739 19.1823 11.3613 18.4278 11.2874 17.6758C11.2136 16.9238 10.8831 16.2204 10.3518 15.6844C10.0511 15.3811 9.69366 15.1403 9.3 14.9756C8.90633 14.8109 8.48415 14.7257 8.05761 14.7248Z" fill="#6875F5"/>
</svg>
